<svg width="19" height="16" viewBox="0 0 19 16" fill="none" xmlns="http://www.w3.org/2000/svg">
<path d="M17.0194 0.88129L16.2835 0.145348C16.0755 -0.0626432 15.6915 -0.0306342 15.4515 0.257311L12.8913 2.80128C11.7392 2.30533 10.4754 2.06533 9.14731 2.06533C5.19519 2.08127 1.77141 4.38524 0.12329 7.69745C0.0272626 7.90544 0.0272626 8.16137 0.12329 8.33736C0.891223 9.90538 2.04329 11.2014 3.4833 12.1774L1.3873 14.3053C1.1473 14.5453 1.11529 14.9293 1.27534 15.1373L2.01128 15.8733C2.21928 16.0812 2.60326 16.0492 2.84326 15.7613L16.8912 1.7134C17.1952 1.47354 17.2272 1.08958 17.0192 0.881565L17.0194 0.88129ZM9.9953 5.71318C9.72329 5.64916 9.43534 5.5692 9.16332 5.5692C7.80327 5.5692 6.71538 6.65723 6.71538 8.01714C6.71538 8.28914 6.7794 8.57709 6.85935 8.84911L5.78724 9.90515C5.46728 9.34519 5.2913 8.72109 5.2913 8.01717C5.2913 5.88919 7.00332 4.17717 9.1313 4.17717C9.83536 4.17717 10.4593 4.35315 11.0193 4.67311L9.9953 5.71318Z" fill="#666666" fill-opacity="0.8"/>
<path d="M18.1714 7.6974C17.6115 6.57735 16.8754 5.56942 15.9635 4.75339L12.9875 7.6974V8.01735C12.9875 10.1453 11.2754 11.8574 9.14745 11.8574H8.8275L6.93951 13.7453C7.64357 13.8893 8.37952 13.9853 9.09952 13.9853C13.0516 13.9853 16.4754 11.6814 18.1235 8.35322C18.2675 8.12915 18.2675 7.90524 18.1715 7.69723L18.1714 7.6974Z" fill="#666666" fill-opacity="0.8"/>
</svg>
